<?xml version="1.0" encoding="UTF-8" standalone="no"?>
<!-- Created with Inkscape (http://www.inkscape.org/) -->
<svg xmlns:dc="http://purl.org/dc/elements/1.1/" xmlns:cc="http://creativecommons.org/ns#" xmlns:rdf="http://www.w3.org/1999/02/22-rdf-syntax-ns#" xmlns:svg="http://www.w3.org/2000/svg" xmlns="http://www.w3.org/2000/svg" xmlns:sodipodi="http://sodipodi.sourceforge.net/DTD/sodipodi-0.dtd" xmlns:inkscape="http://www.inkscape.org/namespaces/inkscape" width="776.84161" height="394.50861" id="svg2" version="1.1" inkscape:version="0.91 r" sodipodi:docname="InfoJr UFBA - Horizontal.svg">
   <style type="text/css">
    .infojr {
      fill: #231f20;
    }
   </style>
  <defs id="defs4">
    <linearGradient x1="0" y1="0" x2="1" y2="0" gradientUnits="userSpaceOnUse" gradientTransform="matrix(0,103.07055,-198.20636,0,367.1022,289.1296)" spreadMethod="pad" id="linearGradient104">
      <stop style="stop-opacity:1;stop-color:#7cb124" offset="0" id="stop106"/>
      <stop style="stop-opacity:1;stop-color:#7cb124" offset="0.37" id="stop108"/>
      <stop style="stop-opacity:1;stop-color:#7cb124" offset="0.43" id="stop110"/>
      <stop style="stop-opacity:1;stop-color:#7cb126" offset="0.49" id="stop112"/>
      <stop style="stop-opacity:1;stop-color:#7cb126" offset="0.49" id="stop114"/>
      <stop style="stop-opacity:1;stop-color:#7eb225" offset="0.55" id="stop116"/>
      <stop style="stop-opacity:1;stop-color:#83b528" offset="0.61" id="stop118"/>
      <stop style="stop-opacity:1;stop-color:#badc41" offset="1" id="stop120"/>
    </linearGradient>
    <linearGradient x1="0.050000001" y1="0" x2="0.94999999" y2="0" gradientUnits="userSpaceOnUse" gradientTransform="matrix(-102.81804,-135.71981,136.25079,-103.2203,252.2761,333.8997)" spreadMethod="pad" id="linearGradient84">
      <stop style="stop-opacity:1;stop-color:#7cb124" offset="0" id="stop86"/>
      <stop style="stop-opacity:1;stop-color:#7cb124" offset="0.59" id="stop88"/>
      <stop style="stop-opacity:1;stop-color:#aac83b" offset="1" id="stop90"/>
    </linearGradient>
  </defs>
  <sodipodi:namedview id="base" pagecolor="#ffffff" bordercolor="#666666" borderopacity="1.0" inkscape:pageopacity="0.0" inkscape:pageshadow="2" inkscape:zoom="1.5122776" inkscape:cx="437.78387" inkscape:cy="125.46481" inkscape:document-units="px" inkscape:current-layer="g4165" showgrid="false" inkscape:window-width="1366" inkscape:window-height="713" inkscape:window-x="0" inkscape:window-y="0" inkscape:window-maximized="1" units="px" height="884px" fit-margin-top="64.625" fit-margin-left="64.625" fit-margin-right="64.625" fit-margin-bottom="64.625"/>
  <metadata id="metadata7">
    <rdf:RDF>
      <cc:Work rdf:about="">
        <dc:format>image/svg+xml</dc:format>
        <dc:type rdf:resource="http://purl.org/dc/dcmitype/StillImage"/>
        <dc:title/>
      </cc:Work>
    </rdf:RDF>
  </metadata>
  <g inkscape:label="Camada 1" inkscape:groupmode="layer" id="layer1" transform="translate(33.072942,-523.46345)">
    <g id="g4165" inkscape:export-xdpi="300" inkscape:export-ydpi="300" transform="translate(-2.6450169,279.04929)">
      <path id="path72" style="fill:#7cb124;fill-opacity:1;fill-rule:evenodd;stroke:none" d="m 297.50954,377.23542 c -1.63412,-91.40887 -259.463624,-92.05937 -263.235744,4.90675 -2.39888,61.66488 52.24562,102.26801 53.41287,156.70413 1.0655,49.66938 163.689124,45.78138 160.310874,-3.11312 -4.96837,-71.91075 44.296,-103.76038 49.512,-158.49776" inkscape:connector-curvature="0"/>
      <g id="g74" transform="matrix(1.25,0,0,-1.25,-168.30596,800.20705)">
        <g id="g76">
          <g id="g82">
            <path id="path92" style="fill:url(#linearGradient84);fill-rule:evenodd;stroke:none" d="m 268.9929,247.0626 c 34.0976,0 61.7496,-14.6129 61.7496,-32.6321 0,-18.0193 -27.652,-32.6322 -61.7496,-32.6322 -34.0977,0 -61.7497,14.6129 -61.7497,32.6322 0,18.0192 27.652,32.6321 61.7497,32.6321" inkscape:connector-curvature="0"/>
          </g>
        </g>
      </g>
      <g id="g94" transform="matrix(1.25,0,0,-1.25,-168.30596,800.20705)">
        <g id="g96">
          <g id="g102">
            <path id="path122" style="fill:url(#linearGradient104);fill-rule:evenodd;stroke:none" d="m 268.001,289.1305 c 54.7228,0 99.1012,23.0777 99.1012,51.5349 0,28.4571 -44.3784,51.5348 -99.1012,51.5348 -54.7228,0 -99.1012,-23.0777 -99.1012,-51.5348 0,-28.4572 44.3784,-51.5349 99.1012,-51.5349" inkscape:connector-curvature="0"/>
          </g>
        </g>
      </g>
      <path id="path124" style="fill:#ffffff;fill-opacity:1;fill-rule:evenodd;stroke:none" d="m 158.63254,386.87492 11.09013,0 c 12.19925,0 22.17975,9.39513 22.17975,20.879 l 0,143.30551 c 0,11.4835 -9.9805,20.87887 -22.17975,20.87887 l -11.09013,0 c -12.19887,0 -22.17975,-9.39537 -22.17975,-20.87887 l 0,-143.30551 c 0,-11.48387 9.98088,-20.879 22.17975,-20.879" inkscape:connector-curvature="0"/>
      <path id="path126" style="fill:#ffffff;fill-opacity:1;fill-rule:evenodd;stroke:none" d="m 164.17742,314.12517 c 17.032,0 30.84375,14.47013 30.84375,32.31288 0,17.84225 -13.81175,32.3125 -30.84375,32.3125 -17.03163,0 -30.84375,-14.47025 -30.84375,-32.3125 0,-17.84275 13.81212,-32.31288 30.84375,-32.31288" inkscape:connector-curvature="0"/>
      <path id="path128" style="fill:#656263;fill-opacity:1;fill-rule:nonzero;stroke:none" d="m 361.01204,513.69593 5.08113,0 0,22.16412 c 0,3.84875 -0.43725,6.91163 -1.3125,9.18 -0.87513,2.26813 -2.447,4.10738 -4.72388,5.5275 -2.277,1.42875 -5.25975,2.13413 -8.95675,2.13413 -3.58975,0 -6.53675,-0.61613 -8.81362,-1.85738 -2.28625,-1.23237 -3.92,-3.02737 -4.89375,-5.37587 -0.98213,-2.3485 -1.46438,-5.54525 -1.46438,-9.60838 l 0,-22.16412 5.07225,0 0,22.13725 c 0,3.331 0.3125,5.7865 0.92863,7.35837 0.61625,1.58025 1.68775,2.79488 3.188,3.652 1.509,0.8575 3.35762,1.28625 5.53637,1.28625 3.73288,0 6.3935,-0.84862 7.98338,-2.54512 1.58037,-1.68775 2.37512,-4.93838 2.37512,-9.7515 l 0,-22.13725 z m 82.82088,38.35387 0,-38.35387 25.87887,0 0,4.52762 -20.79775,0 0,11.8765 17.99363,0 0,4.52763 -17.99363,0 0,17.42212 -5.08112,0 z m 101.28787,0 0,-38.35387 14.39475,0 c 2.92925,0 5.27775,0.39337 7.04588,1.16112 1.777,0.77713 3.16137,1.97363 4.16125,3.58975 1.00025,1.60725 1.50912,3.29525 1.50912,5.06338 0,1.63387 -0.4465,3.17875 -1.33937,4.6255 -0.88413,1.44675 -2.23263,2.61637 -4.02738,3.50925 2.32163,0.67887 4.09888,1.83962 5.349,3.47387 1.25013,1.643 1.87513,3.58088 1.87513,5.8135 0,1.79463 -0.38375,3.46463 -1.14313,5.0095 -0.75887,1.54488 -1.6965,2.73263 -2.813,3.57163 -1.11612,0.83975 -2.51787,1.46487 -4.19662,1.89325 -1.67888,0.42875 -3.74175,0.64312 -6.1885,0.64312 l -14.62713,0 z m 5.08113,-22.23537 8.29562,0 c 2.2415,0 3.858,-0.15163 4.84013,-0.44638 1.28587,-0.38412 2.25925,-1.018 2.91125,-1.911 0.65187,-0.89287 0.98212,-2.009 0.98212,-3.34875 0,-1.26812 -0.30362,-2.39312 -0.91087,-3.35762 -0.61588,-0.97338 -1.49113,-1.63413 -2.6165,-1.99138 -1.13375,-0.35712 -3.0805,-0.53575 -5.84,-0.53575 l -7.66175,0 0,11.59088 z m 0,17.70775 9.546,0 c 1.64312,0 2.795,-0.0624 3.45587,-0.17863 1.16963,-0.214 2.143,-0.56237 2.92925,-1.05337 0.7855,-0.48225 1.42863,-1.19663 1.9375,-2.12538 0.49988,-0.93787 0.75888,-2.00937 0.75888,-3.2325 0,-1.429 -0.366,-2.67025 -1.098,-3.73287 -0.73238,-1.05375 -1.75038,-1.795 -3.05438,-2.2235 -1.29475,-0.41988 -3.16975,-0.63388 -5.608,-0.63388 l -8.86712,0 0,13.18013 z m 95.6885,4.52762 14.7345,-38.35387 5.46512,0 15.69863,38.35387 -5.7865,0 -4.47388,-11.61787 -16.038,0 -4.20587,11.61787 -5.394,0 z m 11.06425,-15.75212 13.01075,0 -4.00963,-10.6175 c -1.21425,-3.22375 -2.12525,-5.87588 -2.7145,-7.9565 -0.49112,2.46462 -1.17887,4.90212 -2.07187,7.33137 l -4.21475,11.24263 z" inkscape:connector-curvature="0"/>
      <path id="path130" class="infojr" style="fill-opacity:1;fill-rule:nonzero;stroke:#231f20;stroke-width:0.27000001;stroke-linecap:butt;stroke-linejoin:miter;stroke-miterlimit:22.92558479;stroke-dasharray:none;stroke-opacity:1" d="m 351.29454,483.16043 -15.23512,0 0,-85.74301 15.23512,0 0,85.74301 z m 1.94875,-110.89913 c 0,3.0115 -0.88575,5.43262 -2.6575,7.29287 -1.77125,1.86025 -4.1335,2.80488 -7.08625,2.80488 -2.77537,0 -5.04875,-0.94463 -6.84987,-2.83463 -1.801,-1.88937 -2.71625,-4.31087 -2.71625,-7.26312 0,-2.89388 0.91525,-5.315 2.74562,-7.234 1.83088,-1.91913 4.10425,-2.86413 6.8205,-2.86413 2.8935,0 5.25588,0.945 7.05688,2.83475 1.80112,1.88963 2.68687,4.31075 2.68687,7.26338 z m 20.373,110.89913 0,-62.89013 c 0,-6.0825 -0.23637,-13.69988 -0.70862,-22.85288 l 13.46387,0 0.70825,12.22363 0.35438,0 c 5.3145,-9.21225 13.3455,-13.81813 24.09337,-13.81813 7.55825,0 13.69988,2.83463 18.42375,8.533 4.72438,5.69826 7.08625,13.90676 7.08625,24.59476 l 0,54.20975 -15.2355,0 0,-52.08375 c 0,-14.99925 -5.19625,-22.49863 -15.5895,-22.49863 -4.901,0 -9.00525,2.03738 -12.34162,6.11188 -3.33638,4.0745 -5.0195,9.35962 -5.0195,15.85525 l 0,52.61525 -15.23513,0 z m 103.10425,0 -15.2355,0 0,-74.22801 -11.33787,0 0,-11.515 11.33787,0 0,-4.60637 c 0,-8.03088 1.21075,-14.67425 3.60213,-19.92963 2.39162,-5.25587 5.728,-9.15312 10.03887,-11.69262 4.31075,-2.53913 9.09388,-3.80863 14.34963,-3.80863 4.606,0 8.68037,0.76738 12.22375,2.30313 l -2.126,11.69212 c -2.53913,-1.063 -5.433,-1.5945 -8.68075,-1.5945 -9.44825,0 -14.17213,7.55863 -14.17213,22.67575 l 0,4.96075 18.06938,0 0,11.515 -18.06938,0 0,74.22801 z m 93.36075,-43.403 c 0,9.38937 -1.50587,17.44975 -4.54712,24.211 -3.04125,6.76175 -7.352,11.92862 -12.90288,15.4715 -5.551,3.54337 -11.60362,5.31462 -18.15837,5.31462 -10.39325,0 -18.80788,-3.95637 -25.24475,-11.83962 -6.43675,-7.8835 -9.65513,-18.631 -9.65513,-32.27175 0,-14.34963 3.42538,-25.42175 10.24588,-33.18726 6.82012,-7.76512 15.38287,-11.633 25.71687,-11.633 10.39288,0 18.74875,3.92663 25.0675,11.81013 6.3185,7.8835 9.478,18.60138 9.478,32.12438 z m -55.27237,0.5315 c 0,9.33025 1.83012,17.12475 5.462,23.38437 3.6315,6.25963 8.41462,9.38913 14.37912,9.38913 5.96438,0 10.777,-3.18863 14.40888,-9.53688 3.6315,-6.34787 5.43225,-14.14275 5.43225,-23.41387 0,-9.153 -1.71213,-16.88875 -5.16688,-23.17813 -3.45437,-6.28862 -8.29662,-9.4185 -14.49712,-9.4185 -6.31838,0 -11.21988,3.10038 -14.73338,9.3005 -3.51362,6.20075 -5.28487,14.02475 -5.28487,23.47338 z" inkscape:connector-curvature="0"/>
      <path id="path132" class="infojr" style="fill-opacity:1;fill-rule:nonzero;stroke:none" d="m 586.57329,517.7208 -1.77162,-12.0465 c 4.66512,-0.5315 8.47375,-1.8015 11.42637,-3.80875 2.95275,-2.008 5.0195,-5.197 6.17075,-9.53712 1.15188,-4.34025 1.71275,-11.86938 1.71275,-22.617 l 0,-74.22763 15.23525,0 0,79.18825 c 0,12.99125 -1.59412,22.26225 -4.8125,27.843 -3.2185,5.58 -7.44062,9.47763 -12.66662,11.69225 -5.22613,2.21413 -10.33413,3.39513 -15.29438,3.5135 z m 34.72225,-147.39313 c 0,2.95238 -0.88575,5.3735 -2.68687,7.26313 -1.801,1.89 -4.163,2.83462 -7.05688,2.83462 -2.77512,0 -5.04887,-0.97437 -6.8495,-2.8935 -1.8015,-1.91937 -2.71662,-4.31075 -2.71662,-7.20425 0,-2.95262 0.91512,-5.37375 2.746,-7.26337 1.8305,-1.88963 4.163,-2.83463 6.99737,-2.83463 2.83463,0 5.13775,0.945 6.909,2.83463 1.77175,1.88962 2.6575,4.31075 2.6575,7.26337 z m 19.8415,110.89913 0,-61.1185 c 0,-6.909 -0.23637,-15.11713 -0.70862,-24.6245 l 13.46387,0 0.70863,15.058 0.5315,0 c 1.77125,-5.1375 4.5765,-9.21225 8.41462,-12.19438 3.8385,-2.982 7.94263,-4.45812 12.31225,-4.45812 l 3.7205,0.17712 0,15.05838 c -0.64987,-0.23638 -2.008,-0.35438 -4.07475,-0.35438 -5.2555,0 -9.7435,2.18488 -13.49337,6.55451 -3.74988,4.36987 -5.63913,10.8655 -5.63913,19.48712 l 0,46.41475 -15.2355,0 z" inkscape:connector-curvature="0"/>
    </g>
  </g>
</svg>