<?xml version="1.0" encoding="UTF-8"?>
<!-- Generator: Adobe Illustrator 19.0.0, SVG Export Plug-In . SVG Version: 6.00 Build 0)  -->
<svg version="1.1" id="Camada_1" xmlns="http://www.w3.org/2000/svg" xmlns:xlink="http://www.w3.org/1999/xlink" x="0px" y="0px" viewBox="36.6 687 1072.5 208.8" style="enable-background:new 36.6 687 1072.5 208.8;" xml:space="preserve">
<style type="text/css">
	.st0{fill:#04BABA;stroke:#23C3C3;stroke-width:4;stroke-miterlimit:10;}
	.st1{fill:#04BABA;}
</style>
<g>
	<g id="XMLID_3_">
		<g id="XMLID_8_">
			<path id="XMLID_9_" class="st0" d="M153.7,759.5c-1-5-3.1-9.4-6.6-13.2c-7.5-8-19.5-11.3-30.4-11.1c-11.5,0.2-24.5,4.3-31.8,13.9     c-4.3,5.4-5.9,11.8-5.4,18.6c3.1,42.6,71.5,9.2,79.9,48.2c5.6,25.8-19,41.1-42.1,41.1c-17.7,0-39.3-10.1-41.4-29.8l-0.2-1.2     l2.8-0.3l0.2,1.2c1.9,18.3,22.3,27.5,38.8,27.5c21.2,0,44.2-13.7,39.1-37.9c-7.8-36.2-76.6-3.1-79.7-48.5     c-0.7-7.3,1.2-14.4,5.7-20.4c17.7-23,67.9-20,73.8,11.5l0.2,1.4L154,761L153.7,759.5z"/>
			<path id="XMLID_11_" class="st0" d="M203.1,856.2V736.7H161v-2.8h86.8v2.8h-42.1v119.5H203.1z"/>
			<path id="XMLID_13_" class="st0" d="M319,814.8h-61.6l-16.5,40.9h-3l48.9-123.5h3l48.9,123.5h-3L319,814.8z M258.6,812.2H318     l-29.8-76.4L258.6,812.2z"/>
			<path id="XMLID_18_" class="st0" d="M353.8,855.7h-2.6V735.3v-1.4h1.4h40.7c48.7,0,48.7,71.2,0,71.2h-19.7l56,50.6h-4l-56-50.6     v-2.6h23.7c45.2,0,45.2-65.8,0-65.8h-39.5V855.7z"/>
			<path id="XMLID_20_" class="st0" d="M474.6,856.2V736.7h-42.1v-2.8h86.8v2.8h-42.1v119.5H474.6z"/>
		</g>
		<g id="XMLID_1_">
			<path id="XMLID_2_" class="st0" d="M865.2,815.5h-61.6l-16.5,40.9h-3l49-123.5h3L885,856.4h-3L865.2,815.5z M804.9,812.9h59.3     l-29.8-76.4L804.9,812.9z"/>
			<path id="XMLID_24_" class="st0" d="M897.4,734.6h1.4h40.7c48.7,0,48.7,75.5,0,75.5h-39.3v46.3h-2.8c0-40.2,0-80.2,0-120.4     L897.4,734.6L897.4,734.6z M939.5,807.5c45.2,0,45.2-70.1,0-70.1h-39.3v70.1H939.5z"/>
			<path id="XMLID_27_" class="st0" d="M991.6,734.6h1.4h40.7c48.7,0,48.7,75.5,0,75.5h-39.3v46.3h-2.8c0-40.2,0-80.2,0-120.4V734.6     z M1033.7,807.5c45.2,0,45.2-70.1,0-70.1h-39.3v70.1H1033.7z"/>
		</g>
		<path id="XMLID_16_" class="st1" d="M747.4,817.8c0-12.6,0-25.3,0-37.9c0-9.9,0-19.8,0-29.6c0-2.8,0.2-5.6,1.3-8.2    c1.8-4.5,5.2-6.6,10.1-6.5c4.8,0.1,8.2,2.4,9.8,6.9c1,2.6,1.1,5.5,1.1,8.3c0,30.3,0,60.6,0,90.9c0,1.3,0,2.6-0.2,3.9    c-0.6,5.1-2,9.9-7.5,11.8c-5.9,2-11.4,1.2-16.2-3c-3.9-3.4-6.5-7.9-9.3-12.1c-13.4-20.4-26.7-40.8-40-61.2c-0.9-1.4-2-2.8-3.2-4.5    c-1.1,2-0.6,3.6-0.6,5.2c0,20.4,0,40.8,0,61.3c0,2.8-0.1,5.6-1.1,8.3c-1.7,4.4-5,6.9-9.8,7c-5,0.2-8.5-2-10.5-6.6    c-1-2.3-1.2-4.8-1.2-7.3c0-30.8,0-61.6,0-92.4c0-11.1,6.6-17.5,16.3-16.3c5.5,0.7,8.5,4.5,11.3,8.7c10.2,15.6,20.4,31.1,30.7,46.6    c6,9,11.9,18.1,17.9,27.1C746.6,818,747,817.9,747.4,817.8z"/>
		<path id="XMLID_7_" class="st1" d="M652.3,794.2c-0.1,32.7-26.1,60.9-59.1,64c-32.4,3-63.1-19.8-69.5-52    c-4.4-21.9,1.7-41,16.4-57.6c1.3-1.5,2.8-2.8,4.4-4c5.1-3.9,11.1-3.6,15.3,0.6c4.3,4.3,4.5,10.5,0.4,15.7c-0.9,1.2-2,2.2-3,3.2    c-11.9,11.9-15.1,26.1-9.6,41.8c5.7,16.3,17.2,27.1,34.7,29.3c16.5,2.1,30.1-4.4,39.8-18c10.7-15,10.7-32.3,0.3-47.6    c-2.5-3.7-5.5-7-8.3-10.5c-3-3.8-3.3-8.7-0.8-12.4c2.8-4.1,8.6-6.1,13.1-4.5c5.5,2,9.3,6.2,12.7,10.7    C647.4,764.2,652.4,779.5,652.3,794.2z"/>
		<path id="XMLID_6_" class="st1" d="M576.1,760.4c0-8.4-0.1-16.8,0-25.2c0.2-7.6,4-11.2,11.4-11.4c6.6-0.2,11,4,11.1,11.2    c0.2,17.1,0.2,34.2,0,51.3c-0.1,7.6-4,11.1-11.5,11.1c-6.6,0-10.7-4.1-10.9-11.4C576,777.5,576.1,768.9,576.1,760.4L576.1,760.4z"/>
	</g>
</g>
</svg>
